<?xml version="1.0" standalone="no"?>
<!DOCTYPE svg PUBLIC "-//W3C//DTD SVG 20010904//EN"
 "http://www.w3.org/TR/2001/REC-SVG-20010904/DTD/svg10.dtd">
<svg version="1.0" xmlns="http://www.w3.org/2000/svg"
 width="1276.000000pt" height="591.000000pt" viewBox="0 0 1276.000000 591.000000"
 preserveAspectRatio="xMidYMid meet">
<metadata>
Created by potrace 1.15, written by Peter Selinger 2001-2017
</metadata>
<g transform="translate(0.000000,591.000000) scale(0.100000,-0.100000)"
fill="#000000" stroke="none">
<path d="M7930 5479 c-124 -8 -365 -76 -520 -147 -194 -88 -250 -117 -350
-176 -212 -128 -409 -265 -522 -363 -192 -169 -348 -314 -473 -440 l-120 -123
-420 -40 c-231 -22 -447 -43 -479 -46 -48 -5 -58 -4 -54 7 64 164 331 713 441
906 51 89 59 123 29 123 -36 0 -193 -196 -447 -559 -136 -194 -349 -493 -370
-518 -1 -2 -87 -14 -191 -27 -104 -14 -303 -45 -442 -71 -139 -25 -296 -50
-350 -55 -53 -5 -131 -14 -172 -20 -41 -6 -111 -15 -155 -21 -98 -13 -143 -27
-172 -53 -26 -22 -30 -46 -9 -46 8 0 95 15 193 34 322 62 310 61 735 61 218 0
399 -3 403 -7 4 -3 -35 -66 -86 -140 -51 -73 -146 -214 -211 -313 -128 -195
-278 -404 -290 -405 -5 0 -8 9 -8 20 0 42 -69 41 -130 -3 -14 -10 -50 -35 -80
-57 -112 -79 -168 -129 -310 -275 -292 -301 -422 -419 -428 -391 -6 26 40 141
100 256 70 132 156 273 275 448 46 67 83 126 83 132 0 27 -47 18 -132 -26 -40
-21 -61 -19 -48 5 12 24 13 68 1 75 -12 8 -84 -61 -110 -105 -18 -31 -19 -38
-7 -48 7 -6 21 -9 30 -5 12 4 5 -18 -24 -85 -113 -254 -292 -501 -403 -557
-18 -9 -40 -23 -49 -31 -42 -37 -48 11 -18 167 32 165 37 183 84 287 107 234
197 495 177 508 -24 14 -108 -121 -139 -225 -11 -36 -32 -92 -47 -125 -14 -33
-40 -109 -56 -170 -28 -102 -100 -287 -121 -310 -6 -6 -13 -3 -20 10 -19 36
-114 120 -196 174 l-81 53 23 36 c12 21 47 82 76 137 30 57 79 128 112 164 32
36 93 110 136 165 42 56 117 151 167 211 252 307 415 613 495 925 49 190 -8
370 -135 433 -51 25 -141 47 -192 47 -85 -1 -258 -74 -391 -165 -149 -103
-254 -195 -408 -360 -250 -267 -381 -448 -508 -706 -83 -166 -106 -255 -106
-404 0 -79 4 -98 29 -150 38 -81 100 -134 231 -200 l55 -28 -89 -81 c-342
-311 -560 -589 -896 -1140 -154 -254 -310 -628 -345 -833 -16 -91 -16 -111 -5
-180 12 -70 18 -83 58 -125 32 -34 59 -52 103 -67 56 -19 64 -19 142 -5 189
34 430 170 738 415 316 252 480 421 731 755 141 187 308 558 308 684 0 23 4
39 9 36 17 -11 166 98 250 183 55 55 115 132 169 214 80 122 182 309 182 334
0 12 46 39 90 53 14 4 33 11 43 15 35 14 17 -32 -52 -131 -228 -330 -413 -686
-375 -724 15 -15 259 197 369 320 141 158 264 273 385 359 154 109 193 116
192 32 -1 -35 -17 -65 -118 -213 -246 -361 -347 -516 -391 -598 -25 -47 -58
-105 -75 -129 -16 -24 -27 -45 -25 -47 13 -13 116 126 317 431 128 193 236
354 240 359 5 5 -14 -63 -41 -150 -74 -240 -99 -346 -102 -434 -2 -66 1 -83
19 -107 62 -84 213 6 424 252 86 101 161 221 274 438 43 81 79 147 82 147 3 0
35 -13 72 -28 234 -100 692 -25 1068 173 l69 37 -62 -59 c-67 -63 -123 -144
-123 -178 0 -12 15 -35 33 -52 43 -41 128 -50 220 -22 34 10 66 19 72 19 5 0
-42 -53 -106 -117 -64 -65 -180 -194 -259 -287 -119 -140 -159 -197 -238 -335
-53 -91 -133 -247 -178 -346 -74 -165 -85 -195 -117 -350 -44 -208 -56 -374
-36 -526 11 -93 17 -108 53 -163 54 -80 117 -116 236 -132 170 -24 339 21 644
173 147 73 359 205 493 306 51 38 96 66 102 63 5 -3 24 11 43 32 18 21 112
106 208 189 380 328 766 765 888 1009 57 115 97 241 94 301 l-3 41 123 93
c150 113 302 266 374 376 29 45 61 86 71 91 10 5 88 31 173 57 173 52 296 99
323 123 21 19 21 17 -3 -93 -21 -93 -90 -461 -90 -479 0 -5 11 1 25 14 13 12
63 102 111 199 47 97 94 184 103 195 23 27 182 152 276 218 67 46 271 158 290
158 3 0 -21 -35 -53 -78 -141 -184 -459 -699 -529 -856 -287 -638 -393 -920
-393 -1045 0 -42 5 -56 31 -86 27 -31 37 -35 79 -35 181 0 509 237 804 580
342 398 627 851 717 1137 l22 71 66 12 c36 7 118 30 181 51 149 49 182 54 253
36 58 -15 120 -54 217 -137 59 -50 230 -126 363 -161 147 -38 288 24 404 179
81 106 119 198 134 322 l13 99 128 72 c113 62 137 72 193 76 54 5 69 2 102
-17 21 -13 51 -37 66 -53 l28 -30 40 39 c45 44 89 131 89 177 0 49 -41 93
-105 111 -162 48 -643 118 -1025 151 -157 14 -330 34 -385 44 -202 40 -362
110 -458 200 -63 59 -81 93 -72 140 l7 36 -31 -29 c-38 -36 -48 -83 -28 -122
24 -46 106 -117 183 -161 152 -86 360 -131 753 -163 279 -23 514 -53 776 -101
267 -48 296 -60 314 -125 7 -28 -1 -99 -12 -110 -3 -3 -21 5 -39 19 -50 37
-94 57 -125 57 -29 -1 -110 -20 -128 -31 -5 -4 -37 -21 -70 -39 -76 -42 -111
-62 -158 -90 -47 -28 -47 -28 -77 86 -24 93 -45 126 -98 153 -35 18 -36 18
-69 -1 -37 -22 -105 -104 -135 -162 -11 -22 -22 -65 -25 -95 -5 -68 19 -115
63 -124 39 -7 141 12 186 34 l37 19 3 -43 c5 -66 -16 -176 -48 -247 -61 -140
-145 -213 -260 -225 -80 -9 -122 1 -289 67 -100 40 -143 63 -190 103 -99 84
-154 117 -223 134 -75 19 -117 13 -262 -37 -109 -39 -270 -73 -270 -58 0 6 6
43 13 81 10 53 10 88 2 142 -9 64 -15 77 -48 111 -24 25 -59 46 -93 58 -52 17
-55 20 -53 49 1 16 -1 53 -5 82 -15 103 -90 125 -188 55 -28 -20 -104 -90
-170 -155 -108 -107 -129 -123 -221 -168 -119 -59 -252 -151 -455 -314 l-33
-27 37 68 c50 92 262 415 384 584 126 174 180 264 180 297 l0 27 -30 -29 c-16
-16 -30 -39 -30 -52 0 -29 -56 -120 -171 -280 -119 -165 -349 -506 -372 -552
-10 -20 -37 -67 -60 -106 -23 -38 -42 -75 -42 -80 0 -12 -54 -135 -59 -135 -9
0 95 511 145 715 90 361 221 689 319 795 35 38 41 41 84 39 37 -2 51 2 69 19
19 19 20 24 7 32 -53 34 -146 -31 -242 -165 -44 -62 -66 -106 -135 -265 -65
-151 -117 -316 -174 -559 l-44 -184 -60 -27 c-33 -15 -76 -32 -95 -37 -141
-43 -309 -96 -327 -104 -13 -5 -23 -7 -23 -5 0 2 19 43 41 92 156 337 216 662
161 879 -28 114 -70 193 -129 240 -26 21 -51 41 -55 45 -4 3 15 69 42 145 109
302 127 458 72 615 -18 54 -72 114 -127 143 -54 28 -162 43 -265 36z m181 -76
c129 -57 184 -167 180 -363 -2 -99 -52 -287 -126 -472 -5 -13 -12 -14 -38 -6
-51 15 -167 9 -273 -15 -136 -31 -225 -90 -354 -235 -149 -167 -260 -335 -326
-495 l-55 -134 -67 -18 c-72 -18 -270 -98 -312 -126 -14 -9 -72 -42 -130 -75
-58 -32 -134 -80 -170 -106 -35 -26 -66 -45 -68 -43 -2 2 3 17 12 33 21 40 22
138 3 182 -22 52 -94 115 -167 148 -36 16 -155 51 -265 77 -277 65 -275 65
-275 74 0 14 135 216 192 286 41 52 57 65 87 69 20 4 175 15 346 26 330 21
589 43 701 60 38 5 110 9 159 9 l90 0 -55 -21 c-30 -11 -80 -29 -110 -40 -104
-38 -175 -72 -276 -131 -45 -27 -94 -62 -110 -79 -26 -26 -18 -24 60 22 108
64 207 109 335 155 146 51 209 80 237 106 13 12 20 27 16 31 -20 20 -151 20
-312 -1 -184 -23 -432 -43 -804 -66 -137 -9 -254 -19 -260 -22 -30 -19 113
133 228 242 330 310 496 438 813 628 196 118 489 243 683 292 130 32 141 34
261 30 79 -2 117 -7 150 -22z m-2691 -298 c0 -9 -20 -50 -44 -93 -89 -158
-242 -461 -336 -666 l-96 -211 -45 -3 c-24 -2 -85 -9 -136 -16 l-92 -13 22 31
c12 17 64 89 115 160 52 70 169 235 259 365 209 297 330 459 346 460 4 1 7 -6
7 -14z m-2385 -314 c66 -29 100 -63 136 -134 27 -52 30 -67 30 -160 1 -113
-12 -176 -68 -327 -114 -306 -213 -467 -519 -845 -27 -33 -59 -74 -72 -90 -22
-28 -23 -24 -5 23 14 38 -50 -35 -73 -83 -26 -53 -91 -136 -186 -237 l-57 -60
1 46 c1 93 -66 121 -170 71 -29 -14 -54 -25 -56 -25 -3 0 -25 -14 -50 -31
l-46 -30 -80 42 c-191 102 -250 182 -250 341 0 148 22 234 105 403 118 243
240 416 458 653 210 228 414 377 622 453 71 26 211 21 280 -10z m5053 -286
l51 -15 -13 -38 c-15 -40 -115 -228 -174 -327 -94 -158 -351 -490 -496 -643
-46 -49 -171 -157 -204 -176 -18 -11 6 44 75 174 65 121 205 391 273 530 48
97 66 155 51 164 -5 3 -28 -12 -52 -34 -31 -27 -38 -37 -23 -34 44 11 27 -30
-168 -406 -47 -91 -120 -232 -162 -315 -72 -141 -81 -154 -148 -212 -74 -63
-114 -90 -123 -81 -5 4 53 216 74 272 6 16 40 61 74 100 125 141 146 182 106
210 -13 9 -33 16 -46 16 -21 0 -19 8 42 155 51 124 81 180 151 281 48 70 113
156 144 191 67 75 176 152 234 165 167 39 257 46 334 23z m194 -158 c100 -200
91 -485 -27 -812 -66 -185 -109 -272 -136 -280 -32 -9 -157 -72 -244 -122
-152 -87 -193 -116 -271 -192 l-82 -78 -52 40 c-65 49 -195 111 -281 132 l-67
17 49 101 c26 56 61 112 76 125 209 175 400 384 603 662 117 159 190 276 275
437 l48 92 39 -31 c22 -17 52 -56 70 -91z m-2389 -179 c-5 -7 -37 -47 -70 -88
-33 -41 -86 -114 -118 -162 -66 -100 -58 -97 -196 -73 -47 8 -206 28 -354 45
-147 16 -270 31 -272 34 -8 7 77 166 89 166 17 0 743 70 823 79 107 13 109 13
98 -1z m-1012 -166 l-39 -78 -119 12 c-65 7 -128 13 -141 13 -23 1 -23 2 10
47 18 25 37 49 43 52 13 8 174 29 238 31 l47 1 -39 -78z m-281 43 c0 -2 -15
-25 -32 -51 l-33 -46 -80 6 c-44 3 -145 9 -225 13 l-145 7 75 14 c41 7 154 24
250 37 96 12 178 23 183 24 4 0 7 -1 7 -4z m6908 -89 c15 -8 34 -22 43 -32 18
-21 53 -118 64 -176 7 -35 5 -38 -21 -49 -16 -6 -59 -13 -96 -16 l-67 -6 -21
34 c-37 58 -16 172 43 237 24 26 21 26 55 8z m-1703 -36 c9 -10 23 -44 30 -75
l13 -55 -36 0 c-37 0 -214 -34 -230 -43 -20 -13 -112 -46 -112 -41 0 23 205
209 250 227 31 12 67 6 85 -13z m-5115 -40 c63 -6 116 -12 117 -14 2 -1 -22
-61 -53 -132 -31 -71 -82 -202 -114 -290 -32 -89 -89 -222 -126 -295 l-67
-134 -42 48 c-58 64 -75 118 -75 241 0 88 23 257 46 336 l7 25 -28 -25 c-27
-23 -26 -22 7 25 19 28 62 91 96 141 55 82 63 90 89 88 15 -2 80 -8 143 -14z
m439 -45 c202 -23 471 -61 478 -69 2 -1 -10 -32 -26 -67 -63 -139 -63 -265 -1
-362 27 -43 47 -59 139 -114 l33 -20 -98 -54 c-182 -99 -316 -151 -539 -206
-100 -25 -127 -28 -290 -28 l-180 0 -87 42 -86 43 83 162 c46 90 109 233 139
318 31 85 77 206 104 267 56 134 18 124 331 88z m776 -132 c220 -52 311 -90
371 -154 48 -51 64 -92 64 -165 0 -76 -21 -112 -95 -162 l-64 -42 -123 19
c-68 11 -138 25 -156 31 l-32 12 42 30 c24 17 63 49 88 72 25 23 80 69 123
104 43 35 75 67 72 73 -9 14 -55 -16 -118 -80 -32 -31 -82 -73 -113 -92 -30
-18 -72 -46 -91 -61 -20 -16 -43 -28 -52 -28 -9 0 -45 17 -81 38 -79 45 -121
103 -140 190 -14 68 -4 148 28 230 20 51 -4 52 277 -15z m3924 -20 c-14 -89
-68 -328 -82 -368 -8 -22 -23 -57 -33 -78 -28 -58 -8 -67 52 -24 27 20 72 44
100 55 59 24 144 38 144 25 0 -28 -76 -225 -130 -336 -163 -338 -551 -863
-814 -1100 -233 -211 -484 -320 -563 -245 -20 19 -23 31 -23 102 0 145 58 302
368 996 80 180 357 639 521 862 52 71 61 78 126 104 95 38 165 52 261 53 l81
1 -8 -47z m158 -25 c32 -33 38 -47 48 -110 11 -72 3 -172 -15 -192 -5 -4 -26
-12 -47 -16 -59 -13 -104 -32 -155 -67 -57 -39 -60 -30 -23 63 14 34 39 126
55 205 42 196 35 179 71 166 16 -6 46 -28 66 -49z m-2936 -164 c-47 -135 -81
-193 -124 -215 -21 -11 -21 -11 3 17 13 16 -5 1 -40 -33 -35 -34 -61 -66 -57
-70 10 -9 19 -2 95 64 l59 52 -31 -102 c-16 -56 -31 -104 -33 -106 -2 -3 -624
70 -631 75 -2 1 11 24 29 52 36 54 107 105 292 211 162 93 389 186 464 190 21
1 20 -3 -26 -135z m-2764 -51 c-28 -155 -31 -234 -12 -299 14 -51 71 -154 85
-154 3 0 15 -8 28 -18 l23 -18 -114 -215 c-143 -270 -182 -333 -278 -444 -109
-127 -186 -179 -257 -173 -49 4 -62 32 -62 134 0 88 24 185 123 501 53 169 55
174 157 330 58 87 138 203 180 258 41 55 88 122 104 148 15 27 30 46 33 43 3
-3 -2 -45 -10 -93z m3770 -329 c-76 -117 -150 -191 -307 -308 -109 -82 -140
-99 -140 -76 0 6 -16 34 -34 62 l-35 51 32 45 c41 56 76 83 214 165 161 95
319 172 331 162 2 -2 -26 -47 -61 -101z m-2196 62 c52 -17 252 -50 290 -47 15
0 37 -3 49 -7 21 -8 18 -12 -41 -59 -82 -64 -269 -176 -269 -160 0 2 54 50
120 106 66 57 119 106 116 108 -2 3 -68 -50 -146 -118 -158 -136 -205 -159
-325 -159 -54 0 -68 4 -94 26 -23 19 -31 34 -31 59 0 66 37 105 219 232 54 37
54 37 112 19z m690 -91 c156 -20 297 -39 313 -43 l30 -8 -45 -25 c-24 -14 -66
-36 -94 -49 -27 -13 -58 -27 -67 -32 -10 -4 -37 -8 -60 -8 -39 0 -88 -28 -88
-52 0 -14 68 -9 107 9 76 33 159 77 200 106 24 17 45 28 48 26 2 -3 -3 -27
-11 -54 -21 -70 -108 -419 -149 -596 -19 -82 -61 -229 -94 -326 -57 -171 -149
-477 -229 -762 l-37 -135 -90 -66 c-298 -219 -704 -421 -906 -450 -202 -30
-338 12 -415 126 -37 56 -42 70 -54 168 -18 150 -3 351 43 552 41 182 123 372
278 646 109 191 212 324 463 592 103 110 131 134 184 158 84 38 210 122 297
197 39 33 75 60 81 61 6 0 139 -16 295 -35z m507 -80 c1 -1 -52 -112 -119
-246 -66 -134 -119 -235 -115 -224 3 11 26 103 51 205 25 102 53 208 61 236
l15 51 52 -9 c29 -6 53 -11 55 -13z m123 -36 c87 -29 173 -74 242 -126 31 -24
57 -47 57 -50 0 -3 -14 -22 -30 -43 -17 -21 -37 -57 -45 -79 -13 -38 -13 -42
4 -51 14 -7 35 -4 77 10 32 10 60 18 61 16 1 -1 3 -27 4 -57 2 -124 -91 -333
-234 -523 -108 -145 -343 -412 -453 -516 -151 -143 -392 -345 -401 -337 -3 4
51 188 120 409 69 222 138 453 152 515 14 61 60 197 101 303 83 213 247 550
267 550 8 0 42 -9 78 -21z m-5036 -29 c12 -14 17 -34 16 -71 0 -29 -3 -54 -5
-56 -2 -2 -26 7 -53 20 -26 13 -77 35 -112 48 l-65 23 60 28 c71 34 133 37
159 8z m-234 -101 c29 -9 46 -24 72 -63 18 -28 36 -59 40 -68 3 -10 16 -18 27
-18 18 0 19 -3 10 -20 -6 -12 -7 -20 -1 -20 10 0 57 53 63 72 4 10 10 10 30 1
l25 -11 -107 -214 c-218 -438 -381 -819 -409 -959 -34 -168 21 -159 227 37 67
62 126 130 164 187 33 49 112 159 175 244 63 84 148 208 191 275 87 138 89
138 91 -7 1 -113 -37 -232 -144 -444 -90 -180 -139 -252 -337 -498 -123 -151
-206 -230 -450 -425 -219 -175 -243 -192 -388 -274 -143 -82 -260 -130 -352
-145 -106 -17 -166 1 -230 69 -40 43 -46 55 -58 125 -11 69 -11 89 5 180 20
113 90 316 183 528 90 207 366 649 582 934 169 222 479 525 538 525 8 0 32 -5
53 -11z m357 -185 c111 -71 212 -173 212 -215 0 -21 -184 -306 -290 -449 -55
-74 -135 -187 -179 -250 -92 -133 -226 -260 -274 -260 -18 0 -19 6 -14 78 8
124 115 391 358 890 64 133 120 242 124 242 3 0 32 -16 63 -36z"/>
</g>
</svg>
